<svg xmlns="http://www.w3.org/2000/svg" width="1800" height="1100" viewBox="0 0 1800 1100">
  <defs>
    <linearGradient id="water" x1="0" y1="0" x2="0.9" y2="1">
      <stop offset="0" stop-color="#163f4f"/>
      <stop offset="0.5" stop-color="#27697a"/>
      <stop offset="1" stop-color="#0e3444"/>
    </linearGradient>
    <linearGradient id="land" x1="0" y1="0" x2="1" y2="1">
      <stop offset="0" stop-color="#6f7349"/>
      <stop offset="0.45" stop-color="#4c5d39"/>
      <stop offset="1" stop-color="#263f2f"/>
    </linearGradient>
    <linearGradient id="sand" x1="0" y1="0" x2="1" y2="0.8">
      <stop offset="0" stop-color="#bea474"/>
      <stop offset="1" stop-color="#8a7654"/>
    </linearGradient>
    <linearGradient id="road" x1="0" y1="0" x2="1" y2="1">
      <stop offset="0" stop-color="#9b815a"/>
      <stop offset="1" stop-color="#65523d"/>
    </linearGradient>
    <linearGradient id="roof" x1="0" y1="0" x2="1" y2="1">
      <stop offset="0" stop-color="#795039"/>
      <stop offset="1" stop-color="#3a2d29"/>
    </linearGradient>
    <linearGradient id="stone" x1="0" y1="0" x2="1" y2="1">
      <stop offset="0" stop-color="#77766a"/>
      <stop offset="1" stop-color="#3d4544"/>
    </linearGradient>
    <radialGradient id="sunwarm">
      <stop offset="0" stop-color="#ffd68a" stop-opacity=".35"/>
      <stop offset="1" stop-color="#ffd68a" stop-opacity="0"/>
    </radialGradient>
    <radialGradient id="tree">
      <stop offset="0" stop-color="#557044"/>
      <stop offset="0.65" stop-color="#2e4c35"/>
      <stop offset="1" stop-color="#183225"/>
    </radialGradient>
  </defs>

  <!-- sea -->
  <rect width="1800" height="1100" fill="url(#water)"/>
  <g opacity=".2" stroke="#c9e1d7" fill="none" stroke-width="4">
    <path d="M20 78 C210 40 330 122 520 78 S850 34 1030 85"/>
    <path d="M0 170 C210 128 350 212 550 165 S890 122 1080 170"/>
    <path d="M0 270 C220 225 390 310 610 265 S930 220 1110 277"/>
    <path d="M10 390 C240 345 390 430 600 386 S900 345 1060 390"/>
    <path d="M10 520 C210 474 375 560 580 520 S880 470 1030 523"/>
    <path d="M15 690 C190 650 330 725 500 690 S760 650 910 700"/>
    <path d="M18 850 C170 815 300 875 435 850 S650 818 790 860"/>
  </g>

  <!-- island mass and irregular coast -->
  <path d="M760 0 L1800 0 L1800 1100 L610 1100 C590 1040 545 1000 480 975 C398 944 320 938 275 900 C230 861 224 802 263 747 C303 691 356 654 380 596 C412 517 369 469 388 403 C405 343 470 313 522 281 C591 238 613 168 655 107 C690 55 720 26 760 0Z" fill="url(#land)"/>

  <!-- beach ribbon -->
  <path d="M650 1068 C596 997 529 972 450 946 C347 912 287 873 295 810 C302 756 362 710 405 646 C455 572 421 508 431 445 C441 377 505 342 562 305 C622 266 650 198 690 132 C717 88 742 53 778 18 L860 0 C806 72 783 140 754 198 C716 272 677 327 615 366 C560 401 519 436 518 490 C517 547 549 607 509 679 C468 751 395 790 382 835 C370 876 419 899 492 916 C590 938 671 983 718 1047 L750 1100 L628 1100Z" fill="url(#sand)"/>
  <path d="M626 1090 C575 1018 508 994 431 967 C333 933 261 886 270 812 C277 750 340 698 383 640" fill="none" stroke="#d5d7c2" stroke-width="14" opacity=".8"/>
  <path d="M624 1090 C575 1026 508 1004 428 978 C326 944 251 895 258 818" fill="none" stroke="#8fc4c4" stroke-width="7" opacity=".55"/>

  <!-- main road -->
  <path d="M580 1000 C630 890 655 785 710 690 C765 596 780 548 835 500 C920 427 1022 460 1085 384 C1140 320 1120 232 1215 180 C1315 126 1460 128 1598 78" fill="none" stroke="#4a3c30" stroke-width="76" opacity=".32"/>
  <path d="M580 1000 C630 890 655 785 710 690 C765 596 780 548 835 500 C920 427 1022 460 1085 384 C1140 320 1120 232 1215 180 C1315 126 1460 128 1598 78" fill="none" stroke="url(#road)" stroke-width="54"/>
  <path d="M600 985 C650 875 674 790 728 704 C783 615 805 558 854 519 C936 453 1032 480 1102 399" fill="none" stroke="#c6a878" stroke-width="3" stroke-dasharray="15 26" opacity=".45"/>

  <!-- dock -->
  <g transform="translate(215 770)">
    <path d="M0 160 L355 18" stroke="#2a2520" stroke-width="78" opacity=".4"/>
    <path d="M0 145 L355 3" stroke="#705039" stroke-width="62"/>
    <path d="M8 128 L350 -8 M34 159 L376 16" stroke="#9a7752" stroke-width="5" opacity=".65"/>
    <g stroke="#32241d" stroke-width="7">
      <path d="M20 113 L20 186 M76 89 L76 164 M135 66 L135 142 M195 42 L195 118 M258 18 L258 95 M325 -7 L325 71"/>
    </g>
    <g fill="#9b7650" opacity=".95">
      <rect x="96" y="62" width="42" height="34"/><rect x="145" y="42" width="35" height="28"/>
      <rect x="197" y="22" width="52" height="40"/><rect x="257" y="0" width="34" height="28"/>
    </g>
  </g>

  <!-- moored little boats -->
  <g fill="#3e2c25" stroke="#9a7651" stroke-width="4">
    <path d="M175 929 Q245 887 310 917 Q270 965 203 967Z"/>
    <path d="M355 1000 Q418 963 480 988 Q442 1034 382 1037Z"/>
  </g>

  <!-- tavern cluster -->
  <g transform="translate(605 425)">
    <ellipse cx="120" cy="184" rx="160" ry="54" fill="#17271f" opacity=".34"/>
    <rect x="18" y="70" width="235" height="125" rx="8" fill="#5b4334" stroke="#2d2823" stroke-width="8"/>
    <path d="M-8 82 L132 8 L278 82 L250 109 L130 49 L17 108Z" fill="url(#roof)" stroke="#2e2824" stroke-width="8"/>
    <path d="M13 108 L249 108" stroke="#a3774c" stroke-width="8" opacity=".65"/>
    <rect x="96" y="122" width="48" height="73" fill="#30251f"/>
    <rect x="36" y="120" width="36" height="34" fill="#e2a458" stroke="#392c25" stroke-width="7"/>
    <rect x="176" y="119" width="38" height="35" fill="#e2a458" stroke="#392c25" stroke-width="7"/>
    <rect x="229" y="31" width="22" height="54" fill="#4a362b"/>
    <path d="M55 85 Q130 62 210 85" fill="none" stroke="#c59a5d" stroke-width="5"/>
    <rect x="256" y="118" width="70" height="52" fill="#3d3028" stroke="#2b2420" stroke-width="6"/>
    <path d="M248 120 L290 86 L337 121Z" fill="#594030" stroke="#2b2420" stroke-width="6"/>
  </g>

  <!-- market tents -->
  <g transform="translate(520 680)">
    <path d="M0 58 L78 0 L155 58Z" fill="#c9b288" stroke="#584838" stroke-width="7"/>
    <rect x="12" y="58" width="132" height="68" fill="#7e674e" opacity=".75"/>
    <path d="M14 60 L144 60" stroke="#e2cfaa" stroke-width="8" stroke-dasharray="18 12"/>
    <g fill="#6a4530" stroke="#30241e" stroke-width="4">
      <rect x="22" y="104" width="34" height="26"/><rect x="62" y="106" width="31" height="22"/><rect x="101" y="100" width="36" height="29"/>
    </g>
  </g>

  <!-- castle ruin / watch tower -->
  <g transform="translate(915 225)">
    <ellipse cx="130" cy="170" rx="165" ry="55" fill="#17251f" opacity=".34"/>
    <rect x="15" y="68" width="250" height="116" rx="5" fill="url(#stone)" stroke="#303735" stroke-width="10"/>
    <path d="M15 68 L15 28 L52 28 L52 54 L92 54 L92 24 L135 24 L135 53 L178 53 L178 20 L220 20 L220 54 L265 54 L265 68Z" fill="#67685f" stroke="#303735" stroke-width="9"/>
    <rect x="112" y="119" width="55" height="65" fill="#292e2d"/>
    <rect x="45" y="104" width="28" height="35" fill="#334348"/>
    <rect x="205" y="100" width="28" height="36" fill="#334348"/>
  </g>

  <!-- graveyard -->
  <g transform="translate(1290 225)" stroke="#6e7067" stroke-width="6" fill="#444b45">
    <path d="M15 180 L15 30 M15 30 L215 30 M215 30 L215 180" fill="none" stroke="#3b3f3a" stroke-width="5"/>
    <g>
      <path d="M45 145 L45 80 M25 104 L66 104"/><path d="M104 166 L104 94 M82 119 L126 119"/>
      <path d="M164 138 L164 68 M141 94 L188 94"/>
    </g>
    <g fill="#77776f" stroke="#3b403c" stroke-width="4">
      <rect x="30" y="139" width="35" height="15" rx="4"/><rect x="87" y="160" width="38" height="15" rx="4"/><rect x="145" y="133" width="42" height="15" rx="4"/>
    </g>
  </g>

  <!-- forest masses -->
  <g>
    <g fill="#142c21" opacity=".4">
      <ellipse cx="1350" cy="690" rx="380" ry="300"/><ellipse cx="1590" cy="620" rx="310" ry="350"/>
    </g>
    <g fill="url(#tree)" stroke="#152a20" stroke-width="5">
      <circle cx="1170" cy="650" r="54"/><circle cx="1240" cy="600" r="63"/><circle cx="1320" cy="665" r="68"/>
      <circle cx="1420" cy="590" r="73"/><circle cx="1510" cy="675" r="66"/><circle cx="1600" cy="580" r="78"/>
      <circle cx="1690" cy="700" r="72"/><circle cx="1220" cy="790" r="70"/><circle cx="1330" cy="830" r="82"/>
      <circle cx="1465" cy="800" r="76"/><circle cx="1585" cy="845" r="86"/><circle cx="1710" cy="870" r="83"/>
      <circle cx="1110" cy="880" r="58"/><circle cx="1250" cy="945" r="73"/><circle cx="1430" cy="980" r="80"/>
      <circle cx="1620" cy="990" r="88"/><circle cx="1750" cy="955" r="78"/>
    </g>
    <g fill="#9b744d">
      <rect x="1234" y="640" width="11" height="54"/><rect x="1415" y="651" width="12" height="60"/><rect x="1594" y="646" width="12" height="62"/>
      <rect x="1324" y="885" width="12" height="63"/><rect x="1580" y="900" width="13" height="68"/>
    </g>
  </g>

  <!-- rocks and cliff accents -->
  <g fill="#66675f" stroke="#3d4743" stroke-width="5">
    <path d="M425 380 l55 -42 l56 24 l-10 61 l-78 24Z"/><path d="M390 566 l38 -28 l44 20 l-12 46 l-58 18Z"/>
    <path d="M760 150 l62 -57 l65 19 l14 71 l-90 26Z"/><path d="M1050 95 l54 -42 l72 17 l19 61 l-101 28Z"/>
    <path d="M1660 210 l54 -49 l64 21 l15 72 l-105 18Z"/>
  </g>

  <!-- barrels/crates -->
  <g stroke="#332820" stroke-width="4">
    <g fill="#765237">
      <rect x="760" y="675" width="42" height="38"/><rect x="807" y="687" width="38" height="34"/>
      <rect x="848" y="660" width="48" height="42"/><rect x="902" y="684" width="35" height="32"/>
      <rect x="385" y="760" width="37" height="34"/><rect x="431" y="744" width="45" height="40"/>
    </g>
    <g fill="#6b4a33">
      <ellipse cx="816" cy="744" rx="20" ry="27"/><ellipse cx="865" cy="736" rx="20" ry="27"/>
      <path d="M798 735 L835 735 M800 750 L833 750 M847 727 L884 727 M847 744 L884 744" fill="none"/>
    </g>
  </g>

  <!-- warm atmospheric pools -->
  <ellipse cx="720" cy="555" rx="285" ry="230" fill="url(#sunwarm)"/>
  <ellipse cx="420" cy="805" rx="220" ry="170" fill="url(#sunwarm)" opacity=".55"/>

  <!-- subtle terrain detail -->
  <g fill="#b89d69" opacity=".28">
    <circle cx="680" cy="770" r="6"/><circle cx="712" cy="742" r="4"/><circle cx="742" cy="718" r="5"/>
    <circle cx="875" cy="518" r="5"/><circle cx="925" cy="490" r="4"/><circle cx="1040" cy="430" r="5"/>
    <circle cx="1198" cy="250" r="5"/><circle cx="1240" cy="222" r="4"/><circle cx="1300" cy="185" r="5"/>
  </g>
</svg>
